Coordinates
nRows=11
nColumns=24

# SIMM Motion File Header:
name Coordinates
datacolumns 24
datarows 11
otherdata 1
range 1.15767000000000000000 1.16767000000000000000

Units are S.I. units (second, meters, Newtons, ...)
Angles are in degrees.

endheader
time	pelvis_tx	pelvis_ty	pelvis_tz	pelvis_tilt	pelvis_list	pelvis_rotation	hip_flexion_r	hip_adduction_r	hip_rotation_r	knee_angle_r	ankle_angle_r	subtalar_angle_r	mtp_angle_r	hip_flexion_l	hip_adduction_l	hip_rotation_l	knee_angle_l	ankle_angle_l	subtalar_angle_l	mtp_angle_l	lumbar_extension	lumbar_bending	lumbar_rotation
      1.15767000000000000000	      1.37966023060261780000	      0.89970669883644161000	     -0.21272504676863210000	      2.64927080736429320000	      0.73154333205642685000	     -2.16958033900128870000	     11.72933825251961300000	     -3.58124732076783750000	     -1.58155909124485270000	    -59.94596590211982300000	      6.11256720701946500000	     -0.00000000000106884595	      0.00000000000043942058	      2.28065469473249660000	      4.47336192093567320000	     -0.67395196559080073000	    -14.99751636594246700000	      9.24087557821829190000	     -0.00000000000001271269	     -0.00000000000003653136	     -8.70499617196968780000	      0.39577863861389501000	      6.95169725284782380000
      1.15867000000000010000	      1.38024050258420730000	      0.89974028120088578000	     -0.21276205099783579000	      2.67154237809603990000	      0.72554752908593345000	     -2.15668080268093610000	     11.82396890535890500000	     -3.56409934879511820000	     -1.54619831405754640000	    -59.94052140915466300000	      6.15315153955147660000	     -0.00000000000107107925	      0.00000000000044067349	      2.19694546026898240000	      4.47408297511294340000	     -0.66430856802046301000	    -14.96105646679108900000	      9.25708439811863390000	     -0.00000000000001262133	     -0.00000000000003692760	     -8.73232579241895830000	      0.40492794467015325000	      6.94234620524882740000
      1.15967000000000000000	      1.38081989333520920000	      0.89977297868915163000	     -0.21279874690019737000	      2.69376414629514520000	      0.71949430718633745000	     -2.14373032212076440000	     11.91830819334379800000	     -3.54678922492506120000	     -1.51085756375754880000	    -59.93365991513007900000	      6.19328617776648380000	     -0.00000000000107331175	      0.00000000000044192618	      2.11340090649956870000	      4.47474346889838430000	     -0.65435305718628767000	    -14.92472359123466700000	      9.27334829390053090000	     -0.00000000000001251210	     -0.00000000000003737144	     -8.75971005277203040000	      0.41412045250574703000	      6.93308143085426480000
      1.16067000000000010000	      1.38139841358145960000	      0.89980478882160120000	     -0.21283513770615470000	      2.71593271583210210000	      0.71338142555891326000	     -2.13072565646275970000	     12.01235480203280700000	     -3.52931654977283400000	     -1.47555242792804300000	    -59.92538367650590200000	      6.23296753982558640000	     -0.00000000000107554505	      0.00000000000044317914	      2.03002562418644010000	      4.47534027595416010000	     -0.64409815662148751000	    -14.88852429860937900000	      9.28967404515796960000	     -0.00000000000001239926	     -0.00000000000003780279	     -8.78714378662801820000	      0.42335993597621163000	      6.92389513152510270000
      1.16167000000000000000	      1.38197607421329090000	      0.89983570923674294000	     -0.21287122636277833000	      2.73804465380538090000	      0.70720669410039894000	     -2.11766360547943270000	     12.10610744782845700000	     -3.51168103193185030000	     -1.44029867216219860000	    -59.91569492831966700000	      6.27219218656836210000	     -0.00000000000107777957	      0.00000000000044443333	      1.94682427028922330000	      4.47587023289797430000	     -0.63355675229832364000	    -14.85246519418289400000	      9.30606836402459510000	     -0.00000000000001227372	     -0.00000000000003825776	     -8.81462173012579870000	      0.43265004965417897000	      6.91477961654048200000
      1.16267000000000010000	      1.38255288628475650000	      0.89986573769917100000	     -0.21290701553468114000	      2.76009649598330010000	      0.70096797641151631000	     -2.10454101369874010000	     12.19956487261617700000	     -3.49388248860932290000	     -1.40511221086770850000	    -59.90459588286019300000	      6.31095682437377190000	     -0.00000000000108001404	      0.00000000000044568836	      1.86380156158721210000	      4.47633014442969210000	     -0.62274186391236475000	    -14.81655292146803400000	      9.32253788856729850000	     -0.00000000000001216498	     -0.00000000000003867864	     -8.84213852850241900000	      0.44199432485215134000	      6.90572730471047610000
      1.16367000000000000000	      1.38312886101280670000	      0.89989487210744956000	     -0.21294250760504010000	      2.78208475224678860000	      0.69466319280163169000	     -2.09135477453639140000	     12.29272583839083800000	     -3.47592084625906760000	     -1.37000907806625240000	    -59.89208872834443300000	      6.34925830802106270000	     -0.00000000000108224718	      0.00000000000044694290	      1.78096226826100820000	      4.47671678847615250000	     -0.61166661609709660000	    -14.78079415439591100000	      9.33908917527828390000	     -0.00000000000001205951	     -0.00000000000003909431	     -8.86968874265965650000	      0.45139616565084972000	      6.89673072649757570000
      1.16467000000000010000	      1.38370400977641820000	      0.89992311050192286000	     -0.21297770467670440000	      2.80400591203135270000	      0.68829032329260376000	     -2.07810183442848470000	     12.38558912187478500000	     -3.45779614121609760000	     -1.33500539819192880000	    -59.87817562759647000000	      6.38709364355088650000	     -0.00000000000108448025	      0.00000000000044819657	      1.69831120746242310000	      4.47702692133899930000	     -0.60034420963922375000	    -14.74519558949131500000	      9.35572869156239230000	     -0.00000000000001195534	     -0.00000000000003951176	     -8.89726685573671890000	      0.46085884492591694000	      6.88778252613857230000
      1.16567000000000000000	      1.38427834411567320000	      0.89995045107244942000	     -0.21301260857338733000	      2.82585644976810220000	      0.68184741062190046000	     -2.06477919696450930000	     12.47815350912670200000	     -3.43950852033331330000	     -1.30011735688887730000	    -59.86285871672854600000	      6.42445999112632380000	     -0.00000000000108671242	      0.00000000000044945020	      1.61585323687345660000	      4.47725728284563380000	     -0.58878789269532583000	    -14.70976393805165600000	      9.37246280822602530000	     -0.00000000000001185471	     -0.00000000000003990347	     -8.92486727968895190000	      0.47038550037269927000	      6.87887546376679640000
      1.16667000000000010000	      1.38485187573077040000	      0.89997689216605670000	     -0.21304722084098188000	      2.84763283032057850000	      0.67533256324001534000	     -2.05138392701029200000	     12.57041779014468300000	     -3.42105824161707250000	     -1.26536117182253880000	    -59.84614010380880000000	      6.46135466786700260000	     -0.00000000000108894442	      0.00000000000045070288	      1.53359324825441060000	      4.47740460150724750000	     -0.57701093201144116000	    -14.67450591832510500000	      9.38929779206306490000	     -0.00000000000001175979	     -0.00000000000004028480	     -8.95248436187880440000	      0.47997913054271063000	      6.87000241755869380000
      1.16767000000000000000	      1.38542461648046640000	      0.90000243229443200000	     -0.21308154274981542000	      2.86933151435340280000	      0.66874395818473276000	     -2.03791315462223020000	     12.66238075350183000000	     -3.40244567475918740000	     -1.23075306378843670000	    -59.82802186720621800000	      6.49777515011430660000	     -0.00000000000109117646	      0.00000000000045195533	      1.45153616096987850000	      4.47746559969122600000	     -0.56502658508438885000	    -14.63942824740407300000	      9.40623979952943220000	     -0.00000000000001166919	     -0.00000000000004066385	     -8.98011239180966210000	      0.48964259118300246000	      6.86115638639275010000
